<svg width="20" height="26" viewBox="0 0 20 26" fill="none" xmlns="http://www.w3.org/2000/svg">
<path d="M18.5615 9.17069C17.8007 7.53692 16.7381 5.94335 15.4031 4.43433C15.1234 4.118 14.6406 4.09884 14.336 4.38318L10.8236 7.66142V0.796113C10.8236 0.221417 10.1307 -0.207976 9.61175 0.10592C6.75907 1.83145 3.29392 5.29267 1.51932 8.98851C0.511151 11.0881 4.14091e-10 13.2641 4.14091e-10 15.4562C-4.97612e-05 20.9822 4.48481 25.4779 9.99745 25.4779C16.9239 25.4779 22.8205 18.3167 18.5615 9.17069ZM7.691 21.6694C7.691 19.7384 9.24565 18.3211 9.99864 17.7479C10.7483 18.3568 12.3038 19.8406 12.3038 21.6694C12.3038 22.9442 11.2692 23.9814 9.9974 23.9814C8.72559 23.9814 7.691 22.9442 7.691 21.6694ZM13.4553 23.2443C14.5965 20.7364 12.7081 17.7054 10.4256 16.2003C10.1866 16.0428 9.87887 16.0359 9.633 16.1829C7.25494 17.6052 5.39605 20.7314 6.53957 23.2443C3.56855 21.9135 1.4928 18.9235 1.4928 15.4562C1.4928 10.0304 5.02637 5.30496 9.33074 2.1136V9.38053C9.33074 10.0326 10.1091 10.373 10.5858 9.92816L14.784 6.00988C17.2518 9.00274 18.5021 12.1774 18.5021 15.4563C18.5021 18.9235 16.4263 21.9135 13.4553 23.2443Z" fill="white"/>
</svg>
