<svg width="15" height="15" viewBox="0 0 15 15" fill="none" xmlns="http://www.w3.org/2000/svg">
<path d="M11.4375 3.56877C11.3797 3.51083 11.311 3.46486 11.2354 3.4335C11.1598 3.40213 11.0787 3.38599 10.9969 3.38599C10.915 3.38599 10.834 3.40213 10.7584 3.4335C10.6828 3.46486 10.6141 3.51083 10.5562 3.56877L7.5 6.61877L4.44375 3.56252C4.38589 3.50465 4.31719 3.45875 4.24159 3.42744C4.16599 3.39612 4.08496 3.38 4.00313 3.38C3.92129 3.38 3.84026 3.39612 3.76466 3.42744C3.68906 3.45875 3.62036 3.50465 3.5625 3.56252C3.50464 3.62038 3.45874 3.68908 3.42742 3.76468C3.39611 3.84028 3.37999 3.92131 3.37999 4.00314C3.37999 4.08497 3.39611 4.166 3.42742 4.24161C3.45874 4.31721 3.50464 4.3859 3.5625 4.44377L6.61875 7.50002L3.5625 10.5563C3.50464 10.6141 3.45874 10.6828 3.42742 10.7584C3.39611 10.834 3.37999 10.9151 3.37999 10.9969C3.37999 11.0787 3.39611 11.1598 3.42742 11.2354C3.45874 11.311 3.50464 11.3797 3.5625 11.4375C3.62036 11.4954 3.68906 11.5413 3.76466 11.5726C3.84026 11.6039 3.92129 11.62 4.00313 11.62C4.08496 11.62 4.16599 11.6039 4.24159 11.5726C4.31719 11.5413 4.38589 11.4954 4.44375 11.4375L7.5 8.38127L10.5562 11.4375C10.6141 11.4954 10.6828 11.5413 10.7584 11.5726C10.834 11.6039 10.915 11.62 10.9969 11.62C11.0787 11.62 11.1597 11.6039 11.2353 11.5726C11.3109 11.5413 11.3796 11.4954 11.4375 11.4375C11.4954 11.3797 11.5413 11.311 11.5726 11.2354C11.6039 11.1598 11.62 11.0787 11.62 10.9969C11.62 10.9151 11.6039 10.834 11.5726 10.7584C11.5413 10.6828 11.4954 10.6141 11.4375 10.5563L8.38125 7.50002L11.4375 4.44377C11.675 4.20627 11.675 3.80627 11.4375 3.56877Z" fill="#7D7878"/>
</svg>
