<svg width="21" height="22" viewBox="0 0 21 22" fill="none" xmlns="http://www.w3.org/2000/svg">
<path d="M20.7275 17.2764L19.1016 8.0732C18.7651 6.16835 17.1168 4.78581 15.1825 4.78581H12.8823C13.2301 4.29145 13.4351 3.6898 13.4351 3.04077C13.4352 1.36411 12.071 0 10.3943 0C8.71765 0 7.3535 1.36411 7.3535 3.04081C7.3535 3.68984 7.55853 4.2915 7.90632 4.78585H5.6061C3.6718 4.78585 2.02356 6.16839 1.687 8.07324L0.0610958 17.2764C-0.144114 18.4381 0.173025 19.6226 0.931106 20.5264C1.68923 21.4302 2.80055 21.9485 3.98024 21.9485H16.8085C17.9882 21.9485 19.0995 21.4302 19.8576 20.5264C20.6157 19.6226 20.9327 18.4381 20.7275 17.2764ZM10.3943 1.29578C11.3565 1.29578 12.1393 2.07859 12.1393 3.04081C12.1393 4.00304 11.3565 4.78585 10.3943 4.78585C9.43213 4.78585 8.64927 4.00304 8.64927 3.04081C8.64927 2.07859 9.43209 1.29578 10.3943 1.29578ZM18.8648 19.6937C18.3535 20.3032 17.604 20.6528 16.8085 20.6528H3.98024C3.18469 20.6528 2.43518 20.3032 1.92393 19.6937C1.41269 19.0841 1.19878 18.2852 1.3372 17.5018L2.9631 8.29869C3.19009 7.01406 4.30166 6.08159 5.60614 6.08159H15.1826C16.4871 6.08159 17.5987 7.01397 17.8256 8.2986L19.4516 17.5018C19.5899 18.2852 19.376 19.0841 18.8648 19.6937Z" fill="white"/>
<path d="M8.26391 13.3672L9.88746 11.6895C10.1363 11.4324 10.1295 11.0223 9.87241 10.7734C9.61524 10.5245 9.20508 10.5313 8.95623 10.7884L7.14055 12.6646V11.239C7.14055 10.8812 6.85046 10.5911 6.49264 10.5911C6.13482 10.5911 5.84473 10.8812 5.84473 11.239V15.4954C5.84473 15.8532 6.13482 16.1433 6.49264 16.1433C6.85046 16.1433 7.14055 15.8532 7.14055 15.4954V14.0697L8.95623 15.946C9.08329 16.0773 9.25249 16.1433 9.42191 16.1433C9.58412 16.1433 9.74659 16.0827 9.87241 15.961C10.1295 15.7121 10.1362 15.302 9.88746 15.0449L8.26391 13.3672Z" fill="white"/>
<path d="M14.296 12.9025H13.3234C12.9656 12.9025 12.6755 13.1926 12.6755 13.5504C12.6755 13.9082 12.9656 14.1983 13.3234 14.1983H13.6374C13.5757 14.5664 13.2549 14.8477 12.8696 14.8477C12.4403 14.8477 12.091 14.4984 12.091 14.0692V12.6656C12.091 12.2363 12.4403 11.887 12.8696 11.887C13.1111 11.887 13.335 11.9964 13.4839 12.1873C13.7041 12.4693 14.1112 12.5195 14.3933 12.2993C14.6753 12.0791 14.7255 11.672 14.5054 11.39C14.1092 10.8824 13.513 10.5913 12.8696 10.5913C11.7258 10.5913 10.7953 11.5218 10.7953 12.6656V14.0692C10.7953 15.213 11.7258 16.1435 12.8696 16.1435C14.0134 16.1435 14.9439 15.213 14.9439 14.0692V13.5505C14.9439 13.1926 14.6538 12.9025 14.296 12.9025Z" fill="white"/>
</svg>
