<svg width="23" height="29" viewBox="0 0 23 29" fill="none" xmlns="http://www.w3.org/2000/svg">
<path d="M7.33786 11.4854C6.80926 11.4854 6.38074 11.9139 6.38074 12.4425C6.38074 12.9711 6.80926 13.3996 7.33786 13.3996H14.9948C15.5234 13.3996 15.9519 12.9711 15.9519 12.4425C15.9519 11.9139 15.5234 11.4854 14.9948 11.4854H7.33786Z" fill="#F66141"/>
<path fill-rule="evenodd" clip-rule="evenodd" d="M11.1664 0C4.93447 0 0 5.41444 0 11.9432C0 14.037 1.04021 16.5025 2.34895 18.8163C3.67887 21.1676 5.3763 23.5147 6.86449 25.4125L6.91413 25.4758C7.64054 26.4022 8.25933 27.1915 8.85934 27.7365C9.51401 28.3312 10.2359 28.7206 11.1664 28.7206C12.0968 28.7206 12.8188 28.3312 13.4734 27.7365C14.0735 27.1914 14.6923 26.4022 15.4187 25.4758L15.4683 25.4125C16.9564 23.5147 18.6539 21.1676 19.9839 18.8163C21.2926 16.5025 22.3328 14.037 22.3328 11.9432C22.3328 5.41444 17.3982 0 11.1664 0ZM1.91424 11.9432C1.91424 6.33703 6.12145 1.91424 11.1664 1.91424C16.2113 1.91424 20.4185 6.33703 20.4185 11.9432C20.4185 13.5084 19.6023 15.6028 18.3176 17.8739C17.0542 20.1075 15.4213 22.3703 13.9619 24.2313C13.1721 25.2386 12.652 25.8966 12.1863 26.3196C11.7616 26.7054 11.478 26.8063 11.1664 26.8063C10.8547 26.8063 10.5712 26.7054 10.1465 26.3196C9.68081 25.8966 9.16064 25.2386 8.3708 24.2313C6.91139 22.3703 5.27855 20.1075 4.01511 17.8739C2.73049 15.6028 1.91424 13.5084 1.91424 11.9432Z" fill="#F66141"/>
</svg>
