<svg width="28" height="29" viewBox="0 0 28 29" fill="none" xmlns="http://www.w3.org/2000/svg">
<path d="M24.1075 28.7028C25.2146 28.7028 26.2807 28.2312 27.0188 27.4009C27.7568 26.5706 28.1054 25.4635 27.9721 24.3666L25.5631 3.44433C25.3376 1.48639 23.6769 0 21.6985 0H6.3015C4.32306 0 2.6624 1.48639 2.43688 3.44433L0.027894 24.3666C-0.105369 25.4635 0.243165 26.5706 0.981237 27.4009C1.71931 28.2312 2.78541 28.7028 3.89252 28.7028H24.1075ZM2.05759 24.6024L4.47683 3.68011C4.57934 2.74727 5.36866 2.0502 6.3015 2.0502H21.6985C22.6313 2.0502 23.4207 2.74727 23.5232 3.68011L25.9424 24.6024C26.0039 25.1252 25.8399 25.6377 25.4811 26.0375C25.1326 26.4373 24.6405 26.6526 24.1075 26.6526H3.89252C3.35947 26.6526 2.86742 26.4373 2.51889 26.0375C2.1601 25.6377 1.99609 25.1252 2.05759 24.6024Z" fill="#F66141"/>
<path d="M14 12.3011C17.3916 12.3011 20.1506 9.54218 20.1506 6.15054V5.12544C20.1506 4.55938 19.6915 4.10034 19.1255 4.10034C18.5594 4.10034 18.1004 4.55938 18.1004 5.12544V6.15054C18.1004 8.4115 16.2609 10.2509 14 10.2509C11.739 10.2509 9.89956 8.4115 9.89956 6.15054V5.12544C9.89956 4.55938 9.44052 4.10034 8.87446 4.10034C8.3084 4.10034 7.84937 4.55938 7.84937 5.12544V6.15054C7.84937 9.54218 10.6083 12.3011 14 12.3011Z" fill="#F66141"/>
</svg>
