<svg width="24" height="32" viewBox="0 0 24 32" fill="none" xmlns="http://www.w3.org/2000/svg">
<path d="M12 14.4C13.4241 14.4 14.8161 13.9777 16.0002 13.1866C17.1842 12.3954 18.107 11.271 18.652 9.95532C19.1969 8.6397 19.3395 7.19202 19.0617 5.79535C18.7839 4.39869 18.0982 3.11577 17.0912 2.10883C16.0843 1.1019 14.8014 0.416163 13.4047 0.138349C12.008 -0.139464 10.5604 0.00311966 9.24473 0.548071C7.9291 1.09302 6.80461 2.01586 6.01347 3.1999C5.22232 4.38393 4.80005 5.77598 4.80005 7.2C4.80195 9.10898 5.56114 10.9392 6.91098 12.2891C8.26083 13.6389 10.0911 14.3981 12 14.4ZM12 2.4C12.9494 2.4 13.8774 2.68152 14.6668 3.20895C15.4561 3.73638 16.0714 4.48604 16.4347 5.36312C16.798 6.24021 16.893 7.20533 16.7078 8.13644C16.5226 9.06755 16.0655 9.92282 15.3942 10.5941C14.7229 11.2654 13.8676 11.7226 12.9365 11.9078C12.0054 12.093 11.0403 11.9979 10.1632 11.6346C9.28608 11.2713 8.53643 10.6561 8.009 9.86674C7.48156 9.07738 7.20005 8.14935 7.20005 7.2C7.20005 5.92696 7.70576 4.70607 8.60594 3.80589C9.50611 2.90572 10.727 2.4 12 2.4Z" fill="#F66141"/>
<path d="M15.4596 16.8H8.5404C6.27601 16.8029 4.10521 17.7038 2.50416 19.3051C0.903108 20.9063 0.00254031 23.0773 0 25.3417C0.00158836 26.8949 0.619321 28.3841 1.71764 29.4824C2.81596 30.5807 4.30514 31.1985 5.8584 31.2001H18.1404C19.694 31.1985 21.1835 30.5806 22.282 29.4821C23.3806 28.3835 23.9984 26.894 24 25.3405C23.9975 23.0762 23.0969 20.9054 21.4958 19.3043C19.8947 17.7032 17.7239 16.8026 15.4596 16.8ZM18.1404 28.8001H5.8584C4.94136 28.7988 4.06226 28.4338 3.41392 27.7853C2.76559 27.1367 2.40095 26.2575 2.4 25.3405C2.40159 23.7124 3.04903 22.1515 4.20024 21.0003C5.35144 19.8491 6.91235 19.2016 8.5404 19.2H15.4596C17.0877 19.2023 18.6484 19.8501 19.7995 21.0014C20.9506 22.1527 21.5981 23.7136 21.6 25.3417C21.5987 26.2587 21.2338 27.1378 20.5852 27.7861C19.9367 28.4345 19.0574 28.7991 18.1404 28.8001Z" fill="#F66141"/>
</svg>
